<?xml version="1.0" encoding="UTF-8" standalone="no"?>
<svg
   version="1.1"
   id="svg2"
   xml:space="preserve"
   width="537.86664"
   height="120.94667"
   viewBox="0 0 537.86664 120.94667"
   xmlns="http://www.w3.org/2000/svg"
   xmlns:svg="http://www.w3.org/2000/svg"><defs
     id="defs6"><clipPath
       clipPathUnits="userSpaceOnUse"
       id="clipPath16"><path
         d="M 0,90.71 H 403.4 V 0 H 0 Z"
         id="path14" /></clipPath></defs><g
     id="g8"
     transform="matrix(1.3333333,0,0,-1.3333333,0,120.94667)"><g
       id="g10"><g
         id="g12"
         clip-path="url(#clipPath16)"><g
           id="g18"
           transform="translate(160.7232,79.2451)"><path
             d="m 0,0 h -9.76 v -35.31 h -11.48 V 0 h -9.8 v 10.31 H 0 Z"
             style="fill:#ffffff;fill-opacity:1;fill-rule:nonzero;stroke:none"
             id="path20" /></g><path
           d="m 179.448,43.935 h -11.431 v 45.62 h 11.431 z"
           style="fill:#ffffff;fill-opacity:1;fill-rule:nonzero;stroke:none"
           id="path22" /><g
           id="g24"
           transform="translate(202.1665,43.9351)"><path
             d="M 0,0 H -11.48 V 45.62 H 2.88 c 12.91,0 19.62,-6.58 19.62,-18.76 0,-12.55 -7.78,-18.75 -19.62,-18.75 H 0 Z m 0,36.16 v -19.2 h 2.3 c 4.93,0 8.35,1.95 8.35,9.6 0,7.65 -3.42,9.6 -8.35,9.6 z"
             style="fill:#ffffff;fill-opacity:1;fill-rule:nonzero;stroke:none"
             id="path26" /></g><g
           id="g28"
           transform="translate(269.0874,79.2451)"><path
             d="m 0,0 h -13.6 l -10.31,-17.85 h -0.13 V 0 h -11.48 v -45.31 h 11.48 v 18.69 h 0.13 l 10.89,-18.69 H 0.4 L -13.6,-22.37 Z"
             style="fill:#ffffff;fill-opacity:1;fill-rule:nonzero;stroke:none"
             id="path30" /></g><g
           id="g32"
           transform="translate(302.0669,53.6353)"><path
             d="m 0,0 h -13.58 l -2.18,-9.7 h -12.15 l 14.03,45.61 h 12.48 l 13.74,-45.61 H 0.15 Z m -2.51,8.91 -4.23,15.77 h -0.12 L -11.32,8.91 Z"
             style="fill:#ffffff;fill-opacity:1;fill-rule:nonzero;stroke:none"
             id="path34" /></g><g
           id="g36"
           transform="translate(360.9068,79.2451)"><path
             d="m 0,0 h -9.76 v -35.31 h -11.48 V 0 h -9.8 v 10.31 H 0 Z"
             style="fill:#ffffff;fill-opacity:1;fill-rule:nonzero;stroke:none"
             id="path38" /></g><path
           d="m 379.631,43.935 h -11.432 v 45.62 h 11.432 z"
           style="fill:#ffffff;fill-opacity:1;fill-rule:nonzero;stroke:none"
           id="path40" /><g
           id="g42"
           transform="translate(43.7818,0)"><path
             d="m 0,0 c -24.144,0 -43.782,19.638 -43.782,43.782 0,24.144 19.638,43.781 43.782,43.781 24.144,0 43.782,-19.637 43.782,-43.781 C 43.782,19.638 24.144,0 0,0 m 0,90.71 c -25.879,0 -46.928,-21.05 -46.928,-46.928 0,-25.879 21.049,-46.929 46.928,-46.929 25.879,0 46.928,21.05 46.928,46.929 0,25.878 -21.049,46.928 -46.928,46.928"
             style="fill:#28b45e;fill-opacity:1;fill-rule:nonzero;stroke:none"
             id="path44" /></g><g
           id="g46"
           transform="translate(84.3951,45.3555)"><path
             d="m 0,0 h -26.745 l 18.911,18.911 c 1.564,1.564 1.564,4.102 0,5.666 -1.564,1.565 -4.102,1.565 -5.666,0 L -32.41,5.667 V 32.411 C -32.41,34.624 -34.204,36.418 -36.417,36.418 -38.63,36.418 -40.424,34.624 -40.424,32.411 V 5.667 l -18.91,18.91 c -1.564,1.565 -4.102,1.565 -5.666,0 -1.565,-1.564 -1.565,-4.102 0,-5.666 L -46.09,0 h -26.744 c -2.213,0 -4.007,-1.794 -4.007,-4.007 0,-2.213 1.794,-4.007 4.007,-4.007 h 26.744 l -18.91,-18.91 c -1.565,-1.565 -1.565,-4.103 0,-5.667 0.782,-0.782 1.807,-1.173 2.833,-1.173 1.025,0 2.051,0.391 2.833,1.173 l 18.91,18.911 v -26.745 c 0,-2.213 1.794,-4.007 4.007,-4.007 2.213,0 4.007,1.794 4.007,4.007 v 26.745 l 18.91,-18.911 c 0.782,-0.782 1.808,-1.173 2.833,-1.173 1.025,0 2.051,0.391 2.833,1.173 1.564,1.564 1.564,4.102 0,5.667 L -26.745,-8.014 H 0 c 2.213,0 4.007,1.794 4.007,4.007 C 4.007,-1.794 2.213,0 0,0"
             style="fill:#28b45e;fill-opacity:1;fill-rule:nonzero;stroke:none"
             id="path48" /></g></g></g></g></svg>